<svg viewBox="0 0 1200 280" xmlns="http://www.w3.org/2000/svg">
  <defs>
    <clipPath id="aiClip">
      <circle cx="1040" cy="140" r="78" />
    </clipPath>
  </defs>

  <rect x="0" y="0" width="1200" height="280" fill="#0c1015" />

  <line x1="0" y1="3" x2="1200" y2="3" stroke="#1b2430" stroke-width="2" stroke-dasharray="6 6" />
  <circle cx="760" cy="3" r="4" fill="#ffb238" />

  <g stroke="#263140" stroke-width="1">
    <line x1="0" y1="276" x2="1200" y2="276" />
    <line x1="60" y1="270" x2="60" y2="276" />
    <line x1="180" y1="270" x2="180" y2="276" />
    <line x1="300" y1="270" x2="300" y2="276" />
    <line x1="420" y1="270" x2="420" y2="276" />
    <line x1="540" y1="270" x2="540" y2="276" />
    <line x1="660" y1="270" x2="660" y2="276" />
  </g>

  <text x="60" y="70" font-family="'IBM Plex Mono', 'Courier New', monospace" font-size="15"
        letter-spacing="2" fill="#5fd6cb">B.TECH CSE &#183; SOUTH ASIAN UNIVERSITY &#183; NEW DELHI</text>

  <text x="58" y="128" font-family="'Space Grotesk', 'Segoe UI', Arial, sans-serif" font-size="54"
        font-weight="700" fill="#e9edf2">Shubham Singh Panwar</text>

  <text x="60" y="168" font-family="'Space Grotesk', 'Segoe UI', Arial, sans-serif" font-size="22"
        font-weight="500" fill="#ffb238">Attitude Control &#183; Robotics &#183; Orbital Systems</text>

  <text x="60" y="204" font-family="'IBM Plex Mono', 'Courier New', monospace" font-size="14"
        fill="#8b97a6">ADCS simulator (Python) &#183; ORBIS &#183; AETHER &#183; CampusMove</text>

  <text x="60" y="248" font-family="'IBM Plex Mono', 'Courier New', monospace" font-size="12"
        letter-spacing="1" fill="#566173">github.com/SSPlaucode &#183; sspanwar.vercel.app</text>

  <g>
    <circle cx="1040" cy="140" r="82" fill="#161d26" />
    <g clip-path="url(#aiClip)">
      <g transform="rotate(-6 1040 140) translate(0 12)">
        <rect x="900" y="-100" width="360" height="300" fill="#1c3a52" />
        <rect x="900" y="140" width="360" height="300" fill="#3a2c16" />
        <line x1="900" y1="140" x2="1200" y2="140" stroke="#e9edf2" stroke-width="1.5" />
        <line x1="1010" y1="120" x2="1070" y2="120" stroke="#8b97a6" stroke-width="1" />
        <line x1="1010" y1="100" x2="1070" y2="100" stroke="#8b97a6" stroke-width="1" />
        <line x1="1010" y1="160" x2="1070" y2="160" stroke="#8b97a6" stroke-width="1" />
        <line x1="1010" y1="180" x2="1070" y2="180" stroke="#8b97a6" stroke-width="1" />
      </g>
    </g>
    <line x1="988" y1="140" x2="1013" y2="140" stroke="#ffb238" stroke-width="3" />
    <line x1="1067" y1="140" x2="1092" y2="140" stroke="#ffb238" stroke-width="3" />
    <polygon points="1040,130 1034,142 1046,142" fill="#ffb238" />
    <circle cx="1040" cy="140" r="82" fill="none" stroke="#263140" stroke-width="2" />
    <text x="1040" y="245" text-anchor="middle" font-family="'IBM Plex Mono', 'Courier New', monospace"
          font-size="12" fill="#5fd6cb">ROLL -6.0&#176;  PITCH 3.0&#176;</text>
  </g>
</svg>